<svg fill="none" height="52" viewBox="0 0 108 52" width="108" xmlns="http://www.w3.org/2000/svg"><path d="m10.3023 45.974h2.368v4.544c-.608.4587-1.312.8107-2.112 1.056-.80005.2453-1.60538.368-2.41605.368-1.16267 0-2.208-.2453-3.136-.736-.928-.5013-1.65867-1.1893-2.192-2.064-.52267-.8853-.784-1.8827-.784-2.992s.26133-2.1013.784-2.976c.53333-.8853 1.26933-1.5733 2.208-2.064.93867-.5013 1.99467-.752 3.168-.752.98133 0 1.87205.1653 2.67205.496s1.472.8107 2.016 1.44l-1.664 1.536c-.8-.8427-1.76538-1.264-2.89605-1.264-.71467 0-1.34933.1493-1.904.448s-.98667.72-1.296 1.264-.464 1.168-.464 1.872c0 .6933.15467 1.312.464 1.856s.736.9707 1.28 1.28c.55467.2987 1.184.448 1.888.448.74667 0 1.41867-.16 2.01605-.48zm13.4477 3.696v2.08h-8.672v-11.2h8.464v2.08h-5.888v2.432h5.2v2.016h-5.2v2.592zm12.3344-9.12v11.2h-2.128l-5.584-6.8v6.8h-2.56v-11.2h2.144l5.568 6.8v-6.8zm11.3218 9.12v2.08h-8.6719v-11.2h8.464v2.08h-5.888v2.432h5.2v2.016h-5.2v2.592zm9.1984 2.08-2.16-3.12h-.128-2.256v3.12h-2.592v-11.2h4.848c.992 0 1.8507.1653 2.576.496.736.3307 1.3014.8 1.696 1.408.3947.608.592 1.328.592 2.16s-.2026 1.552-.608 2.16c-.3946.5973-.96 1.056-1.696 1.376l2.512 3.6zm-.048-7.136c0-.6293-.2026-1.1093-.608-1.44-.4053-.3413-.9973-.512-1.776-.512h-2.112v3.904h2.112c.7787 0 1.3707-.1707 1.776-.512.4054-.3413.608-.8213.608-1.44zm12.0537 4.736h-5.2l-.992 2.4h-2.6561l4.9921-11.2h2.56l5.008 11.2h-2.72zm-.816-1.968-1.776-4.288-1.776 4.288zm7.4475-4.72h-3.584v-2.112h9.76v2.112h-3.584v9.088h-2.592zm12.8383 9.28c-1.1626 0-2.2133-.2507-3.152-.752-.928-.5013-1.6586-1.1893-2.192-2.064-.5226-.8853-.784-1.8773-.784-2.976s.2614-2.0853.784-2.96c.5334-.8853 1.264-1.5787 2.192-2.08.9387-.5013 1.9894-.752 3.152-.752 1.1627 0 2.208.2507 3.136.752s1.6587 1.1947 2.192 2.08c.5334.8747.8 1.8613.8 2.96s-.2666 2.0907-.8 2.976c-.5333.8747-1.264 1.5627-2.192 2.064s-1.9733.752-3.136.752zm0-2.208c.6614 0 1.2587-.1493 1.792-.448.5334-.3093.9494-.736 1.248-1.28.3094-.544.464-1.1627.464-1.856s-.1546-1.312-.464-1.856c-.2986-.544-.7146-.9653-1.248-1.264-.5333-.3093-1.1306-.464-1.792-.464-.6613 0-1.2586.1547-1.792.464-.5333.2987-.9546.72-1.264 1.264-.2986.544-.448 1.1627-.448 1.856s.1494 1.312.448 1.856c.3094.544.7307.9707 1.264 1.28.5334.2987 1.1307.448 1.792.448zm15.2119 2.016-2.16-3.12h-.128-2.2559v3.12h-2.592v-11.2h4.8479c.992 0 1.851.1653 2.576.496.736.3307 1.301.8 1.696 1.408s.592 1.328.592 2.16-.203 1.552-.608 2.16c-.395.5973-.96 1.056-1.696 1.376l2.512 3.6zm-.048-7.136c0-.6293-.203-1.1093-.608-1.44-.405-.3413-.997-.512-1.776-.512h-2.1119v3.904h2.1119c.779 0 1.371-.1707 1.776-.512s.608-.8213.608-1.44z" fill="#fff"/><path d="m1 1h106v35h-106z" stroke="#fff" stroke-width="2"/><path d="m26.9324 24.304v5.696h-18.62402v-22.4h18.20802v5.696h-10.784v2.624h9.472v5.44h-9.472v2.944zm16.927 5.696-3.872-5.984-3.776 5.984h-8.608l8.096-11.296-7.808-11.104h8.48l3.808 5.632 3.712-5.632h8.128l-7.776 10.816 8.256 11.584zm20.358-22.4c2.0693 0 3.872.34133 5.408 1.024s2.72 1.664 3.552 2.944 1.248 2.7733 1.248 4.48-.416 3.2-1.248 4.48-2.016 2.2613-3.552 2.944-3.3387 1.024-5.408 1.024h-3.232v5.504h-7.552v-22.4zm-.48 11.072c1.024 0 1.792-.224 2.304-.672.512-.4693.768-1.12.768-1.952s-.256-1.472-.768-1.92c-.512-.4693-1.28-.704-2.304-.704h-2.752v5.248zm25.2212 11.84c-2.4106 0-4.576-.5013-6.496-1.504s-3.424-2.3893-4.512-4.16c-1.088-1.792-1.632-3.808-1.632-6.048s.544-4.2453 1.632-6.016c1.088-1.792 2.592-3.18933 4.512-4.192s4.0854-1.504 6.496-1.504c2.4107 0 4.576.50133 6.496 1.504s3.424 2.4 4.512 4.192c1.0884 1.7707 1.6324 3.776 1.6324 6.016s-.544 4.256-1.6324 6.048c-1.088 1.7707-2.592 3.1573-4.512 4.16s-4.0853 1.504-6.496 1.504zm0-6.112c.9387 0 1.7814-.224 2.528-.672.768-.4693 1.376-1.12 1.824-1.952.448-.8533.672-1.8453.672-2.976s-.224-2.112-.672-2.944c-.448-.8533-1.056-1.504-1.824-1.952-.7466-.4693-1.5893-.704-2.528-.704-.9386 0-1.792.2347-2.56.704-.7466.448-1.344 1.0987-1.792 1.952-.448.832-.672 1.8133-.672 2.944s.224 2.1227.672 2.976c.448.832 1.0454 1.4827 1.792 1.952.768.448 1.6214.672 2.56.672z" fill="#fff"/></svg>