<?xml version="1.0" encoding="iso-8859-1"?>
<!-- Generator: Adobe Illustrator 19.0.0, SVG Export Plug-In . SVG Version: 6.00 Build 0)  -->
<svg version="1.1" id="Capa_1" xmlns="http://www.w3.org/2000/svg" xmlns:xlink="http://www.w3.org/1999/xlink" x="0px" y="0px"
	 viewBox="0 0 512 512" style="enable-background:new 0 0 512 512;" xml:space="preserve">
<g>
	<g>
		<path d="M411.304,45.524h-53.889V12.661h-53.888V0h-83.896v0.005h-53.888v43.111l-47.186,5.402l-17.862,132.263l91.818,119.801
			L187.055,512h30.018l5.078-196.637l35.482,9.677l7.895-28.951l-48.863-13.327l-84.561-110.331l13.067-96.755l49.601-5.681
			c7.786-0.889,14.934,4.204,16.635,11.848c1.531,6.887-1.815,13.877-8.139,17.001l-37.523,18.532v49.766l13.171,1.621
			c0.849,0.104,84.983,11.25,87.369,79.451l29.99-1.049c-1.333-38.117-20.856-68.746-56.5-88.767
			c0.596-0.707,1.169-1.432,1.719-2.179c5.97,3.271,12.815,5.133,20.089,5.133c7.137,0,13.861-1.797,19.75-4.953
			c7.615,10.652,20.073,17.615,34.137,17.615c8.228,0,15.903-2.391,22.387-6.5c7.693,8.752,18.959,14.292,31.501,14.292
			c4.148,0,8.153-0.614,11.939-1.74v72.803l-24.802,49.746l2.762,209.385h30.01l-2.67-202.507l24.709-49.559V45.524z
			 M195.752,39.892v-9.879h23.88v16.191C212.585,42.021,204.369,39.732,195.752,39.892z M219.637,131.406h-0.001
			c0,6.585-5.356,11.941-11.941,11.941c-5.033,0-9.45-3.143-11.166-7.706l20.029-9.892c1.056-0.522,2.081-1.085,3.08-1.677V131.406z
			 M261.579,131.344c-6.558,0-11.893-5.314-11.936-11.862V30.008h23.876v89.396h0.001
			C273.519,125.988,268.163,131.344,261.579,131.344z M327.408,132.066L327.408,132.066c-0.001,6.584-5.356,11.939-11.94,11.939
			s-11.939-5.355-11.939-11.939V42.67h23.88V132.066z M381.295,139.858c0,6.584-5.355,11.94-11.939,11.94s-11.94-5.355-11.94-11.94
			V75.533h23.88V139.858z"/>
	</g>
</g>
<g>
</g>
<g>
</g>
<g>
</g>
<g>
</g>
<g>
</g>
<g>
</g>
<g>
</g>
<g>
</g>
<g>
</g>
<g>
</g>
<g>
</g>
<g>
</g>
<g>
</g>
<g>
</g>
<g>
</g>
</svg>
