<svg id="Layer_1" enable-background="new 0 0 512.34 512.34" height="512" viewBox="0 0 512.34 512.34" width="512" xmlns="http://www.w3.org/2000/svg"><path d="m509.171 295.54-45.2-60.267v-27.133c1.755-148.163-157.554-251.663-292.049-189.994-72.715-47.833-172.282 5.986-171.751 93.595-.001 30.381 11.981 58.593 33.745 79.458 9.322 9.308 14.455 21.681 14.455 34.855v62.419c0 24.876 19.155 45.019 43.266 46.965 5.518 7.181 11.523 14.038 17.93 20.445l17.524 17.524-30.073 120.295c-1.12 4.481-.113 9.229 2.729 12.869 2.843 3.641 7.204 5.769 11.823 5.769h192.8c6.883 0 12.883-4.685 14.552-11.362l13.226-52.905h42.883c31.251 0 58.149-23.326 62.567-54.26l8.727-61.101 54.482-13.62c4.875-1.219 8.816-4.798 10.498-9.534 1.682-4.734.881-9.998-2.134-14.018zm-454.204-125.716c-.068-.067-.136-.134-.206-.2-52.318-49.908-15.354-139.58 56.81-139.283 72.414-.152 108.891 89.209 56.881 139.6-.028.028-.057.056-.085.084-14.782 14.684-23.274 35.044-23.315 55.882l-.204 15.434h-66.477v-15.286c0-20.961-8.53-41.456-23.404-56.231zm40.537 135.783c-9.337 0-17.133-7.548-17.133-17.133v-17.134h66.4v17.133c0 9.339-7.551 17.133-17.133 17.133h-32.134zm333.762.448c-5.916 1.479-10.348 6.393-11.211 12.43l-10.154 71.089c-2.321 16.248-16.451 28.5-32.869 28.5h-54.595c-6.883 0-12.883 4.685-14.552 11.362l-13.226 52.905h-161.877l27.474-109.895c1.278-5.112-.22-10.519-3.946-14.245l-22.752-22.753c24.118-1.971 43.213-22.163 43.213-46.974.002-.285.279-62.496.281-62.418 0-12.94 5.256-25.589 14.423-34.713 41.314-38.667 44.562-108.655 7.646-150.99 113.072-41.448 238.497 47.128 236.85 167.787v32.133c0 3.246 1.053 6.404 3 9l34.646 46.194z"/></svg>